<svg width="1650" height="207" viewBox="0 0 1650 207" fill="none" xmlns="http://www.w3.org/2000/svg">
<g clip-path="url(#clip0_2_618)">
<g clip-path="url(#clip1_2_618)">
<g clip-path="url(#clip2_2_618)">
<mask id="mask0_2_618" style="mask-type:alpha" maskUnits="userSpaceOnUse" x="0" y="0" width="1650" height="207">
<path d="M1649.99 0.5H0.012085V206.25H1649.99V0.5Z" fill="black"/>
</mask>
<g mask="url(#mask0_2_618)">
<path d="M1649.99 132.697H0.0120239V208.238H1649.99V132.697Z" fill="#000B50"/>
<path d="M1649.99 132.972V24.9023L1626.49 31.2948C1601.74 38.0286 1575.57 37.5033 1551.11 29.7816C1524.9 21.5092 1496.78 21.5092 1470.58 29.7816L1456.87 34.107C1441.12 39.0788 1424.71 41.6088 1408.19 41.6088H1398.4C1373.82 41.6088 1349.75 48.6661 1329.07 61.942C1305.76 76.9003 1278.24 83.9191 1250.6 81.9506L1206.14 78.782C1180.92 76.9844 1155.57 79.5154 1131.2 86.2654L1121.19 89.037C1102.3 94.2695 1082.61 96.0767 1063.08 94.3732C1042.97 92.6176 1022.69 93.5601 1002.81 97.1756L989.724 99.5563C968.913 103.342 949.169 111.595 931.855 123.747L923.154 132.972H1649.99Z" fill="#266B73"/>
<path d="M-0.981873 158.326V28.8103C51.1591 14.769 105.869 13.1692 158.741 24.1397L197.85 32.2544L238.248 45.3234C274.974 57.2048 313.336 63.2556 351.936 63.2556C372.139 63.2556 392.309 64.9133 412.241 68.2119L440.619 72.9084C471.02 77.9393 501.887 79.5514 532.646 77.7145C556.599 76.2841 580.559 80.3752 602.68 89.6723L637.638 104.365L680.014 119.834C707.16 129.743 736.243 133.184 764.952 129.881C785.945 127.467 807.196 128.65 827.79 133.383L895.194 148.872C899.555 149.874 902.645 153.756 902.645 158.231C902.645 158.283 902.603 158.326 902.55 158.326H-0.981873Z" fill="#377982"/>
<path d="M1438.96 75.0471C1439.07 98.7752 1439.23 146.577 1438.96 147.959H1477.69L1438.96 75.0471Z" fill="white"/>
<path d="M1436.47 97.7994C1436.39 114.139 1436.27 147.056 1436.47 148.008H1407.47L1436.47 97.7994Z" fill="white"/>
<path d="M1437.36 149.935V75.0471" stroke="#C7C7C7" stroke-width="3.38064" stroke-linecap="round" stroke-linejoin="round"/>
<path d="M1486.55 149.659H1398.08C1401.96 156.082 1408.92 160.007 1416.43 160.007H1468.06C1475.61 160.007 1482.61 156.089 1486.55 149.659Z" fill="#FA7D29"/>
<path d="M-236.628 206.225V55.7412L-204.277 45.9112C-161.77 32.9956 -116.083 35.3758 -75.1476 52.6386C-60.1972 58.9433 -44.5011 63.308 -28.4422 65.6262L14.8107 71.8701C30.0971 74.0768 44.6696 79.7764 57.397 88.5264C74.1537 100.046 94.0105 106.214 114.345 106.214H123.292C141.387 106.214 159.281 110.012 175.817 117.36L176.751 117.776C193.051 125.021 210.632 128.941 228.466 129.308L298.55 130.754C324.41 131.287 349.629 138.892 371.472 152.744C392.432 166.035 416.516 173.585 441.312 174.637L485.447 176.509C507.566 177.447 529.369 182.111 549.936 190.303L557.756 193.418C562.899 195.467 566.275 200.444 566.275 205.982C566.275 206.116 566.166 206.225 566.032 206.225H-236.628Z" fill="#0C535A"/>
<path fill-rule="evenodd" clip-rule="evenodd" d="M259.74 104.595C262.426 99.2436 270.064 99.2436 272.75 104.595C274.704 108.488 279.617 109.805 283.256 107.409C288.257 104.118 294.872 107.939 294.523 113.916C294.268 118.264 297.864 121.863 302.213 121.609C308.191 121.26 312.009 127.876 308.718 132.878C306.324 136.518 307.64 141.432 311.532 143.387C314.199 144.726 315.537 147.294 315.546 149.867H216.944C216.953 147.294 218.291 144.726 220.958 143.387C224.85 141.432 226.166 136.518 223.773 132.878C220.482 127.876 224.299 121.26 230.277 121.609C234.626 121.863 238.222 118.264 237.968 113.916C237.619 107.939 244.233 104.118 249.234 107.409C252.873 109.805 257.786 108.488 259.74 104.595Z" fill="#183539"/>
<path fill-rule="evenodd" clip-rule="evenodd" d="M23.0106 107.844C25.4819 100.041 36.5231 100.041 38.9943 107.844C41.0797 114.428 49.7865 115.806 53.8043 110.189C58.5651 103.532 69.0654 106.946 69.0051 115.13C68.9543 122.037 76.8088 126.039 82.3659 121.938C88.9508 117.079 97.8819 123.57 95.2962 131.335C93.1141 137.888 99.3469 144.123 105.9 141.941C113.665 139.353 120.152 148.288 115.294 154.875C111.194 160.433 115.195 168.29 122.101 168.239C130.287 168.178 133.697 178.68 127.04 183.444C121.423 187.462 122.801 196.17 129.386 198.257C133.278 199.49 135.23 202.856 135.238 206.227H-73.2334C-73.2243 202.856 -71.2735 199.49 -67.3812 198.257C-60.7964 196.17 -59.4183 187.462 -65.0357 183.444C-71.6922 178.68 -68.2815 168.178 -60.0967 168.239C-53.1899 168.29 -49.1888 160.433 -53.2891 154.875C-58.1476 148.288 -51.6596 139.353 -43.8947 141.941C-37.3421 144.123 -31.1092 137.888 -33.2914 131.335C-35.877 123.57 -26.9459 117.079 -20.361 121.938C-14.804 126.039 -6.94944 122.037 -7.00026 115.13C-7.06047 106.946 3.43982 103.532 8.20065 110.189C12.2185 115.806 20.9252 114.428 23.0106 107.844Z" fill="#183539"/>
</g>
</g>
</g>
</g>
<defs>
<clipPath id="clip0_2_618">
<rect width="1650" height="205.75" fill="white" transform="translate(0 0.5)"/>
</clipPath>
<clipPath id="clip1_2_618">
<rect width="1650" height="205.75" fill="white" transform="translate(0 0.5)"/>
</clipPath>
<clipPath id="clip2_2_618">
<rect width="1649.98" height="205.75" fill="white" transform="translate(0.012085 0.5)"/>
</clipPath>
</defs>
</svg>
